<svg width="205" height="50" viewBox="0 0 205 50" xmlns="http://www.w3.org/2000/svg"><title>Slice 1</title><g fill="none"><path d="M25 49.735c25 0 25-11.134 25-24.868 0-13.734 0-24.868-25-24.868s-25 11.134-25 24.868c0 13.734 0 24.868 25 24.868zm0 0" id="Oval 1" fill="#4A4A4A"/><g><path d="M13.346 34.598c-3.552 0-6.431-2.843-6.431-6.349 0-3.507 2.879-6.349 6.431-6.349.781 0 1.53.138 2.222.389 1.037-4.466 5.087-7.797 9.924-7.797 5.623 0 10.182 4.501 10.182 10.053l-.002.205c.606-.246 1.271-.382 1.967-.382 2.861 0 5.18 2.29 5.18 5.115s-2.319 5.115-5.18 5.115h-24.294000000000004zm0 0" stroke="#fff" stroke-width="1.5" fill="#4A4A4A"/><path d="M27 29v1h5v-1h-5zm0 0" opacity=".907" fill="#fff"/><path d="M25.437 25.785l-4.748 2.85v-.933l3.809-2.266-3.809-2.323v-.914l4.748 2.825v.762zm0 0" stroke="#fff" stroke-width=".7" fill="#fff"/></g><path d="M90.102 34v-8.95c0-1.388-.292-2.397-.876-3.028-.584-.631-1.49-.946-2.717-.946-1.65 0-2.859.417-3.625 1.25-.766.834-1.149 2.186-1.149 4.056v7.617h-1.257v-19.754h1.257v6.284l-.063 1.765h.089c.516-.829 1.168-1.43 1.955-1.803.787-.372 1.765-.559 2.933-.559 3.132 0 4.697 1.68 4.697 5.04v9.026zm-13.229-4.786c0 1.549-.569 2.776-1.708 3.682-1.138.906-2.651 1.358-4.539 1.358-2.268 0-4.007-.25-5.218-.749v-1.295c1.337.567 3.043.851 5.116.851 1.523 0 2.732-.349 3.625-1.047.893-.698 1.339-1.614 1.339-2.749 0-.702-.148-1.284-.444-1.746-.296-.461-.779-.882-1.447-1.263-.669-.381-1.65-.791-2.945-1.231-1.896-.652-3.206-1.356-3.929-2.114-.724-.757-1.085-1.767-1.085-3.028 0-1.388.544-2.52 1.631-3.396 1.088-.876 2.486-1.314 4.196-1.314 1.743 0 3.381.33 4.913.99l-.47 1.117c-1.54-.643-3.013-.965-4.418-.965-1.371 0-2.463.317-3.275.952-.813.635-1.219 1.498-1.219 2.59 0 .686.125 1.248.375 1.688.25.44.658.836 1.225 1.187.567.351 1.54.772 2.92 1.263 1.447.499 2.535.984 3.263 1.454.728.47 1.259 1.003 1.593 1.6.334.597.501 1.318.501 2.165zm24.515 5.04c-2.006 0-3.569-.618-4.691-1.854-1.121-1.236-1.682-2.966-1.682-5.192 0-2.201.542-3.963 1.625-5.288 1.083-1.325 2.543-1.987 4.38-1.987 1.625 0 2.907.567 3.847 1.701.939 1.134 1.409 2.674 1.409 4.621v1.016h-9.94c.017 1.896.459 3.343 1.327 4.342.868.999 2.11 1.498 3.726 1.498.787 0 1.479-.055 2.076-.165.597-.11 1.352-.347 2.266-.711v1.143c-.779.339-1.498.569-2.158.692-.66.123-1.388.184-2.184.184zm-.368-13.203c-1.329 0-2.395.438-3.199 1.314-.804.876-1.274 2.139-1.409 3.79h8.531c0-1.6-.347-2.85-1.041-3.751-.694-.901-1.655-1.352-2.882-1.352zm10.321 12.949h-1.257v-19.754h1.257zm5.878 0h-1.257v-19.754h1.257zm2.311-13.8h1.295l2.92 7.744c.889 2.378 1.451 3.982 1.688 4.812h.076c.355-1.092.935-2.721 1.739-4.888l2.92-7.668h1.295l-6.183 16.034c-.499 1.303-.918 2.184-1.257 2.641-.339.457-.734.8-1.187 1.028-.453.229-1.001.343-1.644.343-.482 0-1.02-.089-1.612-.267v-1.092c.491.135 1.02.203 1.587.203.432 0 .812-.102 1.143-.305.33-.203.628-.518.895-.946.267-.427.576-1.104.927-2.031.351-.927.578-1.53.679-1.809zm29.237-3.859c-2.327 0-4.16.745-5.497 2.234-1.337 1.49-2.006 3.529-2.006 6.119 0 2.649.631 4.706 1.892 6.17 1.261 1.464 3.064 2.196 5.408 2.196 1.557 0 2.988-.199 4.291-.597v1.143c-1.227.432-2.759.647-4.596.647-2.607 0-4.659-.842-6.157-2.526-1.498-1.684-2.247-4.037-2.247-7.059 0-1.887.358-3.55 1.073-4.989s1.743-2.55 3.085-3.333c1.341-.783 2.901-1.174 4.678-1.174 1.811 0 3.432.339 4.862 1.016l-.521 1.168c-1.354-.677-2.776-1.016-4.266-1.016zm9.166 17.659h-1.257v-19.754h1.257zm16.034-6.919c0 2.251-.546 4.01-1.638 5.275-1.092 1.265-2.598 1.898-4.52 1.898-1.21 0-2.277-.292-3.199-.876-.923-.584-1.629-1.422-2.12-2.514-.491-1.092-.736-2.353-.736-3.783 0-2.251.546-4.005 1.638-5.262 1.092-1.257 2.59-1.885 4.494-1.885 1.896 0 3.383.637 4.462 1.911 1.079 1.274 1.619 3.019 1.619 5.237zm-10.893 0c0 1.896.417 3.375 1.25 4.437.834 1.062 2.012 1.593 3.536 1.593 1.523 0 2.702-.531 3.536-1.593.834-1.062 1.25-2.541 1.25-4.437 0-1.904-.421-3.381-1.263-4.431-.842-1.049-2.025-1.574-3.548-1.574-1.523 0-2.698.523-3.523 1.568-.825 1.045-1.238 2.524-1.238 4.437zm14.562-6.881h1.244v8.938c0 1.388.292 2.397.876 3.028.584.631 1.49.946 2.717.946 1.642 0 2.85-.415 3.625-1.244.774-.829 1.162-2.179 1.162-4.05v-7.617h1.244v13.8h-1.066l-.229-1.904h-.076c-.897 1.439-2.493 2.158-4.786 2.158-3.14 0-4.71-1.68-4.71-5.04zm20.541-.267c.999 0 1.862.182 2.59.546.728.364 1.38.986 1.955 1.866h.076c-.051-1.066-.076-2.112-.076-3.136v-4.964h1.244v19.754h-.825l-.317-2.107h-.102c-1.049 1.574-2.556 2.361-4.52 2.361-1.904 0-3.36-.592-4.367-1.777-1.007-1.185-1.511-2.911-1.511-5.18 0-2.387.499-4.211 1.498-5.472.999-1.261 2.45-1.892 4.354-1.892zm0 1.143c-1.507 0-2.639.529-3.396 1.587-.757 1.058-1.136 2.594-1.136 4.608 0 3.91 1.519 5.865 4.558 5.865 1.557 0 2.7-.453 3.428-1.358.728-.906 1.092-2.399 1.092-4.481v-.216c0-2.133-.358-3.667-1.073-4.602-.715-.935-1.873-1.403-3.472-1.403zm0 0" stroke="#2A2A2A" stroke-width=".4" fill="#4A4A4A"/></g></svg>