<?xml version="1.0" encoding="utf-8"?>
<svg xmlns="http://www.w3.org/2000/svg" xmlns:xlink="http://www.w3.org/1999/xlink" version="1.1" x="0px" y="0px" viewBox="0 0 463 100">
	<style type="text/css">
		.st0{fill:#EDCED5;}
		.st1{fill:#2E4059;}
		.st2{fill:#0379AE;}
	</style>
	<g>
		<path class="st0" d="M378.4,0c-5.5,0-9.4,4.5-9.4,10l0,80c0,5.5,4.5,10,10,10c5.5,0,10-4.5,10-10l-0.6-80
			C388.4,4.5,383.9,0,378.4,0z"/>
		<path class="st0" d="M459.5,2.9C457.6,1.1,455,0,452.4,0h-47c-5.5,0-10,4.5-10,10l0.6,80c0,2.7,1.1,5.2,2.9,7.1
			c1.9,1.9,4.4,2.9,7.1,2.9h47c5.5,0,10-4.5,10-10l-0.6-80C462.4,7.4,461.3,4.8,459.5,2.9z M442.4,80h-27l0-60h27L442.4,80z"/>
		<path class="st1" d="M301,20v20h50c5.5,0,10,4.5,10,10v0c0,5.5-4.5,10-10,10h-50v20h50c5.5,0,10,4.5,10,10v0c0,5.5-4.5,10-10,10h-60
			c-5.5,0-10-4.5-10-10V10c0-5.5,4.5-10,10-10h60c5.5,0,10,4.5,10,10v0c0,5.5-4.5,10-10,10H301z"/>
		<path class="st1" d="M459.7,83.2c3.8,4.1,4.1,10.4,0.1,14.1c-1.9,1.8-4.4,2.7-6.8,2.7c-2.7,0-5.4-1.1-7.3-3.2l-30.3-32.1
			l-29.1,32.1c-2,2.1-4.7,3.2-7.3,3.2c-2.4,0-4.9-0.9-6.8-2.7c-4.1-3.8-4.9-10.1-1.2-14.1L401.8,50L371,16.8
			c-3.8-4-3.5-10.4,0.6-14.1c4-3.8,10.4-3.5,14.1,0.5l29.7,32.1l29.7-32.1c3.8-4,10.1-4.3,14.1-0.5s4.3,10.1,0.5,14.1L429,50
			L459.7,83.2z"/>
		<path class="st2" d="M118,20v20h50c5.5,0,10,4.5,10,10v0c0,5.5-4.5,10-10,10h-50v20h50c5.5,0,10,4.5,10,10v0c0,5.5-4.5,10-10,10h-60
			c-5.5,0-10-4.5-10-10V10c0-5.5,4.5-10,10-10h60c5.5,0,10,4.5,10,10v0c0,5.5-4.5,10-10,10H118z"/>
		<path class="st2" d="M90,10L90,10c0,5.5-4.5,10-10,10H55v70c0,5.5-4.5,10-10,10h0c-5.5,0-10-4.5-10-10V20H10C4.5,20,0,15.5,0,10v0
			C0,4.5,4.5,0,10,0h70C85.5,0,90,4.5,90,10z"/>
		<path class="st2" d="M261,100c-2.9,0-5.8-1.3-7.7-3.6L205,37.8l0,52.2c0,5.5-4.5,10-10,10c0,0,0,0,0,0c-5.5,0-10-4.5-10-10l0-80
			c0-4.2,2.7-8,6.6-9.4c4-1.4,8.4-0.2,11.1,3.1L251,62.2l0-52.2c0-5.5,4.5-10,10-10c0,0,0,0,0,0c5.5,0,10,4.5,10,10l0,80
			c0,4.2-2.7,8-6.6,9.4C263.3,99.8,262.1,100,261,100z"/>
	</g>
</svg>
