<?xml version="1.0" encoding="utf-8"?>
<!-- Generator: Adobe Illustrator 18.1.1, SVG Export Plug-In . SVG Version: 6.00 Build 0)  -->
<!DOCTYPE svg PUBLIC "-//W3C//DTD SVG 1.1//EN" "http://www.w3.org/Graphics/SVG/1.1/DTD/svg11.dtd">
<svg version="1.1" id="Layer_1" xmlns="http://www.w3.org/2000/svg" xmlns:xlink="http://www.w3.org/1999/xlink" x="0px" y="0px"
	 viewBox="0 0 239.8 53" enable-background="new 0 0 239.8 53" xml:space="preserve">
<g>
	<g>
		<path fill="#343638" d="M54,53h-5.6v-4.5H54c0.5,0,0.7-0.3,0.8-0.5c0.1-0.2,0.2-0.5,0-1L30.6,5c-0.2-0.4-0.6-0.5-0.8-0.5
			S29.2,4.6,28.9,5l-4.9,8.4C35.9,22.1,43,35.9,43,50.7V53H27.7v-2.3c0-9.3-4.3-18-11.5-23.7l-3.1,5.4c5.1,4.6,8.1,11.3,8.1,18.3V53
			H5.5c-2,0-3.8-1-4.8-2.7s-1-3.8,0-5.5l3.5-6.1l3.9,2.3L4.7,47c-0.2,0.4-0.1,0.8,0,1c0.1,0.2,0.3,0.5,0.8,0.5h11.1
			C16,43,13.2,38,8.8,34.7l-1.6-1.2l7.5-13.1l2,1.3c9.1,6,14.7,15.9,15.4,26.6h6.2C37.6,35.3,30.8,23.3,19.8,16L18,14.8l7-12.1
			C26,1,27.8,0,29.8,0s3.8,1,4.8,2.7l24.3,42c1,1.7,1,3.8,0,5.5S56,53,54,53z"/>
	</g>
	<path fill="#343638" d="M84.2,42.3c-4.7,0-9-1.6-12.6-4.6l2.7-3.2c3.3,2.7,6.4,3.9,10,3.9c3.7,0,6.1-1.8,6.1-4.5
		c0-2.8-1.8-4.1-7.6-5.4c-6.6-1.6-10.2-3.5-10.2-9c0-5.2,4.3-8.8,10.3-8.8c4.2,0,7.6,1.1,10.8,3.6l-2.4,3.4
		c-2.9-2.1-5.7-3.1-8.5-3.1c-3.4,0-5.7,1.7-5.7,4.3c0,2.9,1.7,4,7.9,5.5c7.1,1.7,9.8,4.2,9.8,8.9C95,38.8,90.8,42.3,84.2,42.3z"/>
	<polygon fill="#343638" points="99.3,41.9 99.3,11.1 121.9,11.1 121.9,15.1 103.9,15.1 103.9,24.4 119.8,24.4 119.8,28.3 
		103.9,28.3 103.9,37.9 122.1,37.9 122.1,41.9 	"/>
	<polygon fill="#343638" points="149.2,41.9 131,18.3 131,41.9 126.5,41.9 126.5,11.1 130.9,11.1 148.7,34.1 148.7,11.1 153.2,11.1 
		153.2,41.9 	"/>
	<polygon fill="#343638" points="166.9,41.9 166.9,15.3 156.8,15.3 156.8,11.1 181.6,11.1 181.6,15.3 171.5,15.3 171.5,41.9 	"/>
	<path fill="#343638" d="M205.4,41.9l-7.8-11.1h-7.8v11.1h-4.6V11.1h13.7c7,0,11.3,3.7,11.3,9.6c0,4.6-2.6,7.9-7.2,9.2l-0.7,0.2
		l8.4,11.8H205.4z M189.8,26.9h8.7c4.3,0,7-2.3,7-5.9c0-3.7-2.6-5.8-7.1-5.8h-8.6V26.9z"/>
	<polygon fill="#343638" points="223,41.9 223,29.7 210.8,11.1 216.2,11.1 225.4,25.6 234.6,11.1 239.8,11.1 227.6,29.6 227.6,41.9 
			"/>
</g>
</svg>
